<svg width="52" height="52" viewBox="0 0 52 52" fill="none" xmlns="http://www.w3.org/2000/svg">
<path d="M25.8404 50.3708C39.2892 50.3708 50.1809 39.4248 50.1809 25.9354C50.1809 12.446 39.2892 1.5 25.8404 1.5C12.3917 1.5 1.5 12.446 1.5 25.9354C1.5 39.4248 12.3917 50.3708 25.8404 50.3708Z" fill="white" stroke="white" stroke-width="3"/>
<path d="M27.5 15C27.5 14.1716 26.8284 13.5 26 13.5C25.1716 13.5 24.5 14.1716 24.5 15H27.5ZM24.5 37C24.5 37.8284 25.1716 38.5 26 38.5C26.8284 38.5 27.5 37.8284 27.5 37H24.5ZM24.5 15L24.5 37H27.5L27.5 15H24.5Z" fill="#555AA3"/>
<path d="M15 24.5C14.1716 24.5 13.5 25.1716 13.5 26C13.5 26.8284 14.1716 27.5 15 27.5L15 24.5ZM37 27.5C37.8284 27.5 38.5 26.8284 38.5 26C38.5 25.1716 37.8284 24.5 37 24.5L37 27.5ZM15 27.5L37 27.5L37 24.5L15 24.5L15 27.5Z" fill="#555AA3"/>
</svg>
