<svg width="62" height="56" viewBox="0 0 62 56" fill="none" xmlns="http://www.w3.org/2000/svg">
<mask id="path-1-inside-1" fill="white">
<path fill-rule="evenodd" clip-rule="evenodd" d="M18.4307 6.5134C11.7887 9.73158 7.35107 16.3731 7.2595 23.7782C5.31789 22.691 3.6302 21.0051 2.50254 18.8347C-0.341192 13.3615 1.45349 6.88024 6.51108 4.35841C10.4378 2.40048 15.1768 3.40488 18.4307 6.5134Z"/>
</mask>
<path fill-rule="evenodd" clip-rule="evenodd" d="M18.4307 6.5134C11.7887 9.73158 7.35107 16.3731 7.2595 23.7782C5.31789 22.691 3.6302 21.0051 2.50254 18.8347C-0.341192 13.3615 1.45349 6.88024 6.51108 4.35841C10.4378 2.40048 15.1768 3.40488 18.4307 6.5134Z" fill="white"/>
<path d="M7.2595 23.7782L5.79233 26.3966L10.1965 28.8626L10.2589 23.8124L7.2595 23.7782ZM18.4307 6.5134L19.7363 9.2134L23.6282 7.32769L20.5036 4.34271L18.4307 6.5134ZM2.50254 18.8347L5.16449 17.4491L2.50254 18.8347ZM6.51108 4.35841L7.84725 7.04337L6.51108 4.35841ZM10.2589 23.8124C10.3357 17.6024 14.0652 11.9612 19.7363 9.2134L17.1251 3.81341C9.51233 7.50197 4.36644 15.1437 4.26009 23.744L10.2589 23.8124ZM8.72667 21.1598C7.28949 20.355 6.01971 19.0951 5.16449 17.4491L-0.159399 20.2203C1.24069 22.915 3.34629 25.0269 5.79233 26.3966L8.72667 21.1598ZM5.16449 17.4491C2.97354 13.2323 4.51472 8.70504 7.84725 7.04337L5.1749 1.67346C-1.60774 5.05544 -3.65593 13.4907 -0.159399 20.2203L5.16449 17.4491ZM7.84725 7.04337C10.4816 5.72981 13.881 6.31796 16.3578 8.6841L20.5036 4.34271C16.4726 0.491795 10.3939 -0.928843 5.1749 1.67346L7.84725 7.04337Z" fill="#393737" mask="url(#path-1-inside-1)"/>
<mask id="path-3-inside-2" fill="white">
<path fill-rule="evenodd" clip-rule="evenodd" d="M54.8966 20.5401C53.7256 13.2348 48.6527 7.06487 41.6029 4.8539C43.2 3.28965 45.3002 2.1443 47.7041 1.68259C53.7415 0.523036 59.4085 4.11458 60.3617 9.70453C61.1008 14.0395 58.788 18.3034 54.8966 20.5401Z"/>
</mask>
<path fill-rule="evenodd" clip-rule="evenodd" d="M54.8966 20.5401C53.7256 13.2348 48.6527 7.06487 41.6029 4.8539C43.2 3.28965 45.3002 2.1443 47.7041 1.68259C53.7415 0.523036 59.4085 4.11458 60.3617 9.70453C61.1008 14.0395 58.788 18.3034 54.8966 20.5401Z" fill="white"/>
<path d="M41.6029 4.8539L39.5033 2.70837L35.9223 6.21582L40.7091 7.71709L41.6029 4.8539ZM54.8966 20.5401L51.9351 21.0115L52.624 25.309L56.3933 23.1425L54.8966 20.5401ZM47.7041 1.68259L48.2733 4.6295L48.2733 4.6295L47.7041 1.68259ZM60.3617 9.70453L63.3182 9.20367L60.3617 9.70453ZM40.7091 7.71709C46.6102 9.56781 50.9339 14.765 51.9351 21.0115L57.858 20.0688C56.5173 11.7046 50.6951 4.56192 42.4967 1.9907L40.7091 7.71709ZM43.7026 6.99943C44.8857 5.84062 46.4559 4.97854 48.2733 4.6295L47.1349 -1.26431C44.1444 -0.689943 41.5143 0.738674 39.5033 2.70837L43.7026 6.99943ZM48.2733 4.6295C52.8978 3.74129 56.7741 6.50514 57.4051 10.2054L63.3182 9.20367C62.0428 1.72401 54.5852 -2.69522 47.1349 -1.26431L48.2733 4.6295ZM57.4051 10.2054C57.9043 13.1332 56.3584 16.2373 53.3999 17.9378L56.3933 23.1425C61.2177 20.3694 64.2974 14.9459 63.3182 9.20367L57.4051 10.2054Z" fill="#393737" mask="url(#path-3-inside-2)"/>
<path d="M52.6467 26.9491C52.6467 38.7934 43.0864 48.3845 31.3063 48.3845C19.5261 48.3845 9.96582 38.7934 9.96582 26.9491C9.96582 15.1048 19.5261 5.5137 31.3063 5.5137C43.0864 5.5137 52.6467 15.1048 52.6467 26.9491Z" stroke="#393737" stroke-width="3"/>
<path d="M32.8062 20.0685C32.8062 19.2401 32.1346 18.5685 31.3062 18.5685C30.4778 18.5685 29.8062 19.2401 29.8062 20.0685H32.8062ZM29.8062 20.0685V29.816H32.8062V20.0685H29.8062Z" fill="#750620"/>
<path d="M38.7415 35.287C39.4744 35.6734 40.3796 35.3914 40.7634 34.6573C41.1473 33.9231 40.8643 33.0148 40.1315 32.6285L38.7415 35.287ZM40.1315 32.6285L32.1973 28.4457L30.8074 31.1043L38.7415 35.287L40.1315 32.6285Z" fill="#4A0AD1"/>
<ellipse cx="31.5917" cy="29.816" rx="1.99854" ry="1.72015" fill="white"/>
<path d="M14.472 47.9818C15.2107 48.5886 15.1507 49.737 14.353 50.263C13.3814 50.9035 12.0939 50.1659 12.1546 49.0036C12.2153 47.8412 13.5724 47.2428 14.472 47.9818Z" stroke="#393737" stroke-width="3" stroke-linecap="round"/>
<path d="M48.1912 50.1567C47.4799 49.6616 47.426 48.6287 48.0818 48.0617C48.9179 47.3389 50.219 47.8931 50.2766 48.9966C50.3342 50.1 49.0979 50.7878 48.1912 50.1567Z" stroke="#393737" stroke-width="3" stroke-linecap="round"/>
</svg>
