<svg width="138" height="125" viewBox="0 0 138 125" fill="none" xmlns="http://www.w3.org/2000/svg">
<mask id="path-1-inside-1" fill="white">
<path fill-rule="evenodd" clip-rule="evenodd" d="M41.045 14.549C26.252 21.7307 16.3626 36.5521 16.1474 53.0761C11.8271 50.651 8.07248 46.8899 5.56435 42.0477C-0.762015 29.8339 3.23786 15.3668 14.4983 9.73449C23.2466 5.35872 33.8034 7.60273 41.045 14.549Z"/>
</mask>
<path d="M16.1474 53.0761L14.6764 55.6935L19.0807 58.1657L19.1465 53.1103L16.1474 53.0761ZM41.045 14.549L42.3509 17.2482L46.2319 15.364L43.1227 12.3815L41.045 14.549ZM5.56435 42.0477L2.90078 43.4316L2.90078 43.4316L5.56435 42.0477ZM14.4983 9.73449L15.8361 12.4179L15.8361 12.4179L14.4983 9.73449ZM19.1465 53.1103C19.3462 37.7781 28.5303 23.9578 42.3509 17.2482L39.7391 11.8499C23.9738 19.5037 13.379 35.3262 13.1482 53.0419L19.1465 53.1103ZM17.6183 50.4587C13.8027 48.3168 10.4648 44.9822 8.22791 40.6637L2.90078 43.4316C5.68016 48.7975 9.8516 52.9851 14.6764 55.6935L17.6183 50.4587ZM8.22791 40.6637C2.54989 29.7017 6.30084 17.1873 15.8361 12.4179L13.1605 7.05108C0.174883 13.5463 -4.07392 29.9662 2.90078 43.4316L8.22791 40.6637ZM15.8361 12.4179C23.2881 8.69053 32.502 10.5148 38.9673 16.7165L43.1227 12.3815C35.1049 4.69066 23.2051 2.02691 13.1605 7.05108L15.8361 12.4179Z" fill="white" mask="url(#path-1-inside-1)"/>
<mask id="path-3-inside-2" fill="white">
<path fill-rule="evenodd" clip-rule="evenodd" d="M122.198 45.8586C119.579 29.5557 108.273 15.7843 92.5703 10.8488C96.1259 7.34359 100.808 4.77762 106.171 3.74641C119.604 1.16329 132.218 9.18853 134.344 21.6713C135.993 31.3504 130.853 40.8675 122.198 45.8586Z"/>
</mask>
<path d="M92.5703 10.8488L90.4635 8.70844L86.9086 12.2129L91.6775 13.7119L92.5703 10.8488ZM122.198 45.8586L119.237 46.3286L119.929 50.6342L123.699 48.4598L122.198 45.8586ZM106.171 3.74641L105.599 0.799115L105.599 0.799115L106.171 3.74641ZM134.344 21.6713L131.388 22.1693L134.344 21.6713ZM91.6775 13.7119C106.23 18.2857 116.788 31.0821 119.237 46.3286L125.159 45.3886C122.37 28.0293 110.317 13.2829 93.4632 7.98568L91.6775 13.7119ZM94.6772 12.9891C97.8192 9.89166 101.97 7.6115 106.743 6.69371L105.599 0.799115C99.6466 1.94374 94.4326 4.79553 90.4635 8.70844L94.6772 12.9891ZM106.743 6.69371C118.754 4.38403 129.583 11.5704 131.388 22.1693L137.301 21.1732C134.853 6.80662 120.454 -2.05744 105.599 0.799115L106.743 6.69371ZM131.388 22.1693C132.798 30.4471 128.417 38.8048 120.696 43.2574L123.699 48.4598C133.288 42.9302 139.188 32.2537 137.301 21.1732L131.388 22.1693Z" fill="white" mask="url(#path-3-inside-2)"/>
<path d="M119.02 60.1543C119.02 87.61 96.9206 109.849 69.6817 109.849C42.4427 109.849 20.3433 87.61 20.3433 60.1543C20.3433 32.6985 42.4427 10.4592 69.6817 10.4592C96.9206 10.4592 119.02 32.6985 119.02 60.1543Z" stroke="white" stroke-width="3"/>
<path d="M71.1816 44.7957C71.1816 43.9673 70.5101 43.2957 69.6816 43.2957C68.8532 43.2957 68.1816 43.9673 68.1816 44.7957H71.1816ZM68.1816 44.7957V66.5536H71.1816V44.7957H68.1816Z" fill="#750620"/>
<path d="M87.0846 77.1286C87.817 77.5158 88.7212 77.2342 89.1042 76.4996C89.4871 75.765 89.2039 74.8556 88.4715 74.4684L87.0846 77.1286ZM88.4715 74.4684L70.8116 65.1319L69.4247 67.7921L87.0846 77.1286L88.4715 74.4684Z" fill="#4A0AD1"/>
<ellipse cx="70.3171" cy="66.5536" rx="4.44836" ry="3.83963" fill="white"/>
<path d="M34.6743 112.603L30.4892 115.37C28.0934 116.954 24.9132 115.135 25.0625 112.266L25.3727 106.306C25.522 103.437 28.8736 101.963 31.0919 103.79L34.9668 106.982C36.7838 108.479 36.6367 111.306 34.6743 112.603Z" stroke="white" stroke-width="3" stroke-linecap="round"/>
<path d="M104.54 106.991L107.817 104.15C110.019 102.24 113.452 103.699 113.604 106.609L113.881 111.932C114.032 114.842 110.77 116.654 108.381 114.987L104.827 112.506C102.958 111.201 102.816 108.485 104.54 106.991Z" stroke="white" stroke-width="3" stroke-linecap="round"/>
</svg>
