<svg width="46" height="46" viewBox="0 0 46 46" fill="none" xmlns="http://www.w3.org/2000/svg">
<path d="M44.1809 22.9354C44.1809 34.7797 34.6206 44.3708 22.8404 44.3708C11.0603 44.3708 1.5 34.7797 1.5 22.9354C1.5 11.0911 11.0603 1.5 22.8404 1.5C34.6206 1.5 44.1809 11.0911 44.1809 22.9354Z" stroke="white" stroke-opacity="0.63" stroke-width="3"/>
<path d="M24.3404 16.0548C24.3404 15.2264 23.6688 14.5548 22.8404 14.5548C22.012 14.5548 21.3404 15.2264 21.3404 16.0548H24.3404ZM21.3404 16.0548V25.8023H24.3404V16.0548H21.3404Z" fill="#E0B246"/>
<path d="M30.2757 31.2733C31.0085 31.6597 31.9138 31.3777 32.2976 30.6436C32.6814 29.9094 32.3985 29.0011 31.6657 28.6148L30.2757 31.2733ZM31.6657 28.6148L23.7315 24.432L22.3415 27.0906L30.2757 31.2733L31.6657 28.6148Z" fill="#750620"/>
<ellipse cx="23.1259" cy="25.8023" rx="1.99854" ry="1.72015" fill="white"/>
</svg>
