<svg width="60" height="60" viewBox="0 0 74 74" fill="none" xmlns="http://www.w3.org/2000/svg">
<path d="M19.9397 54.5835C29.6528 63.8853 45.09 63.513 54.4199 53.7704C63.7499 44.0279 63.4543 28.5891 53.7411 19.2873C44.028 9.98554 28.5909 10.3579 19.2609 20.1004C9.93098 29.8429 10.2266 45.2817 19.9397 54.5835Z" fill="white" stroke="white" stroke-width="3"/>
<path d="M45.6024 30.1853C46.1754 29.587 46.1548 28.6375 45.5565 28.0645C44.9582 27.4915 44.0087 27.5121 43.4357 28.1104L45.6024 30.1853ZM28.2194 43.9995C27.6464 44.5978 27.667 45.5474 28.2653 46.1203C28.8636 46.6933 29.8131 46.6728 30.3861 46.0745L28.2194 43.9995ZM43.4357 28.1104L28.2194 43.9995L30.3861 46.0745L45.6024 30.1853L43.4357 28.1104Z" fill="#555AA3"/>
<path d="M30.0038 28.4009C29.4055 27.828 28.4559 27.8485 27.883 28.4468C27.31 29.0451 27.3305 29.9947 27.9288 30.5676L30.0038 28.4009ZM43.818 45.7839C44.4163 46.3569 45.3658 46.3363 45.9388 45.738C46.5118 45.1397 46.4913 44.1902 45.8929 43.6172L43.818 45.7839ZM27.9288 30.5676L43.818 45.7839L45.8929 43.6172L30.0038 28.4009L27.9288 30.5676Z" fill="#555AA3"/>
</svg>
