<svg width="352" height="105" viewBox="0 0 352 105" fill="none" xmlns="http://www.w3.org/2000/svg">
<path d="M285 50C298.807 50 310 38.8071 310 25C310 11.1929 298.807 0 285 0C271.193 0 260 11.1929 260 25C260 38.8071 271.193 50 285 50Z" fill="#E0B246"/>
<path d="M285 49C298.255 49 309 38.2548 309 25C309 11.7452 298.255 1 285 1C271.745 1 261 11.7452 261 25C261 38.2548 271.745 49 285 49Z" stroke="white" stroke-width="2"/>
<path d="M212 50C225.807 50 237 38.8071 237 25C237 11.1929 225.807 0 212 0C198.193 0 187 11.1929 187 25C187 38.8071 198.193 50 212 50Z" fill="#FCB64E"/>
<path d="M212 49C225.255 49 236 38.2548 236 25C236 11.7452 225.255 1 212 1C198.745 1 188 11.7452 188 25C188 38.2548 198.745 49 212 49Z" stroke="white" stroke-width="2"/>
<path d="M139 50C152.807 50 164 38.8071 164 25C164 11.1929 152.807 0 139 0C125.193 0 114 11.1929 114 25C114 38.8071 125.193 50 139 50Z" fill="#F7D859"/>
<path d="M139 49C152.255 49 163 38.2548 163 25C163 11.7452 152.255 1 139 1C125.745 1 115 11.7452 115 25C115 38.2548 125.745 49 139 49Z" stroke="white" stroke-width="2"/>
<path d="M66 50C79.8071 50 91 38.8071 91 25C91 11.1929 79.8071 0 66 0C52.1929 0 41 11.1929 41 25C41 38.8071 52.1929 50 66 50Z" fill="#767BC4"/>
<path d="M66 49C79.2548 49 90 38.2548 90 25C90 11.7452 79.2548 1 66 1C52.7452 1 42 11.7452 42 25C42 38.2548 52.7452 49 66 49Z" stroke="white" stroke-width="2"/>
<path d="M99.7186 27L88.0186 62H82.7686L73.2186 34.05L63.6686 62H58.3186L46.6186 27H51.7686L61.2186 55.45L71.0686 27H75.6686L85.3186 55.6L94.9686 27H99.7186ZM112.783 35.25C116.45 35.25 119.25 36.15 121.183 37.95C123.15 39.75 124.133 42.4333 124.133 46V62H119.583V58.5C118.783 59.7333 117.633 60.6833 116.133 61.35C114.666 61.9833 112.916 62.3 110.883 62.3C107.916 62.3 105.533 61.5833 103.733 60.15C101.966 58.7167 101.083 56.8333 101.083 54.5C101.083 52.1667 101.933 50.3 103.633 48.9C105.333 47.4667 108.033 46.75 111.733 46.75H119.333V45.8C119.333 43.7333 118.733 42.15 117.533 41.05C116.333 39.95 114.566 39.4 112.233 39.4C110.666 39.4 109.133 39.6667 107.633 40.2C106.133 40.7 104.866 41.3833 103.833 42.25L101.833 38.65C103.2 37.55 104.833 36.7167 106.733 36.15C108.633 35.55 110.65 35.25 112.783 35.25ZM111.683 58.6C113.516 58.6 115.1 58.2 116.433 57.4C117.766 56.5667 118.733 55.4 119.333 53.9V50.2H111.933C107.866 50.2 105.833 51.5667 105.833 54.3C105.833 55.6333 106.35 56.6833 107.383 57.45C108.416 58.2167 109.85 58.6 111.683 58.6ZM143.316 49.65L137.816 54.75V62H133.016V24.9H137.816V48.7L152.266 35.5H158.066L146.916 46.45L159.166 62H153.266L143.316 49.65ZM186.653 48.9C186.653 49.2667 186.62 49.75 186.553 50.35H165.053C165.353 52.6833 166.37 54.5667 168.103 56C169.87 57.4 172.053 58.1 174.653 58.1C177.82 58.1 180.37 57.0333 182.303 54.9L184.953 58C183.753 59.4 182.253 60.4667 180.453 61.2C178.687 61.9333 176.703 62.3 174.503 62.3C171.703 62.3 169.22 61.7333 167.053 60.6C164.887 59.4333 163.203 57.8167 162.003 55.75C160.837 53.6833 160.253 51.35 160.253 48.75C160.253 46.1833 160.82 43.8667 161.953 41.8C163.12 39.7333 164.703 38.1333 166.703 37C168.737 35.8333 171.02 35.25 173.553 35.25C176.087 35.25 178.337 35.8333 180.303 37C182.303 38.1333 183.853 39.7333 184.953 41.8C186.087 43.8667 186.653 46.2333 186.653 48.9ZM173.553 39.3C171.253 39.3 169.32 40 167.753 41.4C166.22 42.8 165.32 44.6333 165.053 46.9H182.053C181.787 44.6667 180.87 42.85 179.303 41.45C177.77 40.0167 175.853 39.3 173.553 39.3ZM229.746 53.25H211.146L207.296 62H202.146L217.996 27H222.946L238.846 62H233.596L229.746 53.25ZM227.996 49.25L220.446 32.1L212.896 49.25H227.996ZM257.417 35.25C259.984 35.25 262.284 35.8167 264.317 36.95C266.351 38.0833 267.934 39.6667 269.067 41.7C270.234 43.7333 270.817 46.0833 270.817 48.75C270.817 51.4167 270.234 53.7833 269.067 55.85C267.934 57.8833 266.351 59.4667 264.317 60.6C262.284 61.7333 259.984 62.3 257.417 62.3C255.517 62.3 253.767 61.9333 252.167 61.2C250.601 60.4667 249.267 59.4 248.167 58V71.7H243.367V35.5H247.967V39.7C249.034 38.2333 250.384 37.1333 252.017 36.4C253.651 35.6333 255.451 35.25 257.417 35.25ZM257.017 58.1C258.717 58.1 260.234 57.7167 261.567 56.95C262.934 56.15 264.001 55.05 264.767 53.65C265.567 52.2167 265.967 50.5833 265.967 48.75C265.967 46.9167 265.567 45.3 264.767 43.9C264.001 42.4667 262.934 41.3667 261.567 40.6C260.234 39.8333 258.717 39.45 257.017 39.45C255.351 39.45 253.834 39.85 252.467 40.65C251.134 41.4167 250.067 42.5 249.267 43.9C248.501 45.3 248.117 46.9167 248.117 48.75C248.117 50.5833 248.501 52.2167 249.267 53.65C250.034 55.05 251.101 56.15 252.467 56.95C253.834 57.7167 255.351 58.1 257.017 58.1ZM291.499 35.25C294.066 35.25 296.366 35.8167 298.399 36.95C300.433 38.0833 302.016 39.6667 303.149 41.7C304.316 43.7333 304.899 46.0833 304.899 48.75C304.899 51.4167 304.316 53.7833 303.149 55.85C302.016 57.8833 300.433 59.4667 298.399 60.6C296.366 61.7333 294.066 62.3 291.499 62.3C289.599 62.3 287.849 61.9333 286.249 61.2C284.683 60.4667 283.349 59.4 282.249 58V71.7H277.449V35.5H282.049V39.7C283.116 38.2333 284.466 37.1333 286.099 36.4C287.733 35.6333 289.533 35.25 291.499 35.25ZM291.099 58.1C292.799 58.1 294.316 57.7167 295.649 56.95C297.016 56.15 298.083 55.05 298.849 53.65C299.649 52.2167 300.049 50.5833 300.049 48.75C300.049 46.9167 299.649 45.3 298.849 43.9C298.083 42.4667 297.016 41.3667 295.649 40.6C294.316 39.8333 292.799 39.45 291.099 39.45C289.433 39.45 287.916 39.85 286.549 40.65C285.216 41.4167 284.149 42.5 283.349 43.9C282.583 45.3 282.199 46.9167 282.199 48.75C282.199 50.5833 282.583 52.2167 283.349 53.65C284.116 55.05 285.183 56.15 286.549 56.95C287.916 57.7167 289.433 58.1 291.099 58.1Z" fill="black"/>
</svg>
