<svg viewBox="0 0 52 52" fill="black" xmlns="http://www.w3.org/2000/svg" width="40" height="40">
<path d="M25.8404 50.3708C39.2892 50.3708 50.1809 39.4248 50.1809 25.9354C50.1809 12.446 39.2892 1.5 25.8404 1.5C12.3917 1.5 1.5 12.446 1.5 25.9354C1.5 39.4248 12.3917 50.3708 25.8404 50.3708Z" fill="white" stroke="white" stroke-width="3"/>
<path d="M15 24.5C14.1716 24.5 13.5 25.1716 13.5 26C13.5 26.8284 14.1716 27.5 15 27.5L15 24.5ZM37 27.5C37.8284 27.5 38.5 26.8284 38.5 26C38.5 25.1716 37.8284 24.5 37 24.5L37 27.5ZM15 27.5L37 27.5L37 24.5L15 24.5L15 27.5Z" fill="#555AA3"/>
<path d="M15 16.5C14.1716 16.5 13.5 17.1716 13.5 18C13.5 18.8284 14.1716 19.5 15 19.5L15 16.5ZM37 19.5C37.8284 19.5 38.5 18.8284 38.5 18C38.5 17.1716 37.8284 16.5 37 16.5L37 19.5ZM15 19.5L37 19.5L37 16.5L15 16.5L15 19.5Z" fill="#555AA3"/>
<path d="M15 32.5C14.1716 32.5 13.5 33.1716 13.5 34C13.5 34.8284 14.1716 35.5 15 35.5L15 32.5ZM37 35.5C37.8284 35.5 38.5 34.8284 38.5 34C38.5 33.1716 37.8284 32.5 37 32.5L37 35.5ZM15 35.5L37 35.5L37 32.5L15 32.5L15 35.5Z" fill="#555AA3"/>
</svg>
