<svg width="188" height="80" viewBox="0 0 188 80" fill="none" xmlns="http://www.w3.org/2000/svg">
<path d="M41.7383 1.99999L32.2983 30H29.1783L20.9783 6.11999L12.7383 30H9.65828L0.218281 1.99999H3.25828L11.3383 26.08L19.6983 1.99999H22.4583L30.6983 26.2L38.8983 1.99999H41.7383ZM63.2839 20.36H45.6839C45.8439 22.5467 46.6839 24.32 48.2039 25.68C49.7239 27.0133 51.6439 27.68 53.9639 27.68C55.2706 27.68 56.4706 27.4533 57.5639 27C58.6572 26.52 59.6039 25.8267 60.4039 24.92L62.0039 26.76C61.0706 27.88 59.8972 28.7333 58.4839 29.32C57.0972 29.9067 55.5639 30.2 53.8839 30.2C51.7239 30.2 49.8039 29.7467 48.1239 28.84C46.4706 27.9067 45.1772 26.6267 44.2439 25C43.3106 23.3733 42.8439 21.5333 42.8439 19.48C42.8439 17.4267 43.2839 15.5867 44.1639 13.96C45.0706 12.3333 46.2972 11.0667 47.8439 10.16C49.4172 9.25332 51.1772 8.79999 53.1239 8.79999C55.0706 8.79999 56.8172 9.25332 58.3639 10.16C59.9106 11.0667 61.1239 12.3333 62.0039 13.96C62.8839 15.56 63.3239 17.4 63.3239 19.48L63.2839 20.36ZM53.1239 11.24C51.0972 11.24 49.3906 11.8933 48.0039 13.2C46.6439 14.48 45.8706 16.16 45.6839 18.24H60.6039C60.4172 16.16 59.6306 14.48 58.2439 13.2C56.8839 11.8933 55.1772 11.24 53.1239 11.24ZM69.1045 0.319992H71.9445V30H69.1045V0.319992ZM88.5667 30.2C86.4867 30.2 84.6201 29.7467 82.9667 28.84C81.3401 27.9333 80.0601 26.6667 79.1267 25.04C78.1934 23.3867 77.7267 21.5333 77.7267 19.48C77.7267 17.4267 78.1934 15.5867 79.1267 13.96C80.0601 12.3333 81.3401 11.0667 82.9667 10.16C84.6201 9.25332 86.4867 8.79999 88.5667 8.79999C90.3801 8.79999 91.9934 9.15999 93.4067 9.87999C94.8467 10.5733 95.9801 11.6 96.8067 12.96L94.6867 14.4C93.9934 13.36 93.1134 12.5867 92.0467 12.08C90.9801 11.5467 89.8201 11.28 88.5667 11.28C87.0467 11.28 85.6734 11.6267 84.4467 12.32C83.2467 12.9867 82.3001 13.9467 81.6067 15.2C80.9401 16.4533 80.6067 17.88 80.6067 19.48C80.6067 21.1067 80.9401 22.5467 81.6067 23.8C82.3001 25.0267 83.2467 25.9867 84.4467 26.68C85.6734 27.3467 87.0467 27.68 88.5667 27.68C89.8201 27.68 90.9801 27.4267 92.0467 26.92C93.1134 26.4133 93.9934 25.64 94.6867 24.6L96.8067 26.04C95.9801 27.4 94.8467 28.44 93.4067 29.16C91.9667 29.8533 90.3534 30.2 88.5667 30.2ZM110.634 30.2C108.608 30.2 106.781 29.7467 105.154 28.84C103.528 27.9067 102.248 26.6267 101.314 25C100.381 23.3733 99.9142 21.5333 99.9142 19.48C99.9142 17.4267 100.381 15.5867 101.314 13.96C102.248 12.3333 103.528 11.0667 105.154 10.16C106.781 9.25332 108.608 8.79999 110.634 8.79999C112.661 8.79999 114.488 9.25332 116.114 10.16C117.741 11.0667 119.008 12.3333 119.914 13.96C120.848 15.5867 121.314 17.4267 121.314 19.48C121.314 21.5333 120.848 23.3733 119.914 25C119.008 26.6267 117.741 27.9067 116.114 28.84C114.488 29.7467 112.661 30.2 110.634 30.2ZM110.634 27.68C112.128 27.68 113.461 27.3467 114.634 26.68C115.834 25.9867 116.768 25.0133 117.434 23.76C118.101 22.5067 118.434 21.08 118.434 19.48C118.434 17.88 118.101 16.4533 117.434 15.2C116.768 13.9467 115.834 12.9867 114.634 12.32C113.461 11.6267 112.128 11.28 110.634 11.28C109.141 11.28 107.794 11.6267 106.594 12.32C105.421 12.9867 104.488 13.9467 103.794 15.2C103.128 16.4533 102.794 17.88 102.794 19.48C102.794 21.08 103.128 22.5067 103.794 23.76C104.488 25.0133 105.421 25.9867 106.594 26.68C107.794 27.3467 109.141 27.68 110.634 27.68ZM153.352 8.79999C155.992 8.79999 158.059 9.55999 159.552 11.08C161.072 12.6 161.832 14.84 161.832 17.8V30H158.992V18.08C158.992 15.8933 158.459 14.2267 157.392 13.08C156.352 11.9333 154.872 11.36 152.952 11.36C150.766 11.36 149.046 12.04 147.792 13.4C146.539 14.7333 145.912 16.5867 145.912 18.96V30H143.072V18.08C143.072 15.8933 142.539 14.2267 141.472 13.08C140.432 11.9333 138.939 11.36 136.992 11.36C134.832 11.36 133.112 12.04 131.832 13.4C130.579 14.7333 129.952 16.5867 129.952 18.96V30H127.112V8.95999H129.832V12.8C130.579 11.52 131.619 10.5333 132.952 9.83999C134.286 9.14666 135.819 8.79999 137.552 8.79999C139.312 8.79999 140.832 9.17332 142.112 9.91999C143.419 10.6667 144.392 11.7733 145.032 13.24C145.806 11.8533 146.912 10.7733 148.352 9.99999C149.819 9.19999 151.486 8.79999 153.352 8.79999ZM187.932 20.36H170.332C170.492 22.5467 171.332 24.32 172.852 25.68C174.372 27.0133 176.292 27.68 178.612 27.68C179.919 27.68 181.119 27.4533 182.212 27C183.306 26.52 184.252 25.8267 185.052 24.92L186.652 26.76C185.719 27.88 184.546 28.7333 183.132 29.32C181.746 29.9067 180.212 30.2 178.532 30.2C176.372 30.2 174.452 29.7467 172.772 28.84C171.119 27.9067 169.826 26.6267 168.892 25C167.959 23.3733 167.492 21.5333 167.492 19.48C167.492 17.4267 167.932 15.5867 168.812 13.96C169.719 12.3333 170.946 11.0667 172.492 10.16C174.066 9.25332 175.826 8.79999 177.772 8.79999C179.719 8.79999 181.466 9.25332 183.012 10.16C184.559 11.0667 185.772 12.3333 186.652 13.96C187.532 15.56 187.972 17.4 187.972 19.48L187.932 20.36ZM177.772 11.24C175.746 11.24 174.039 11.8933 172.652 13.2C171.292 14.48 170.519 16.16 170.332 18.24H185.252C185.066 16.16 184.279 14.48 182.892 13.2C181.532 11.8933 179.826 11.24 177.772 11.24ZM94.247 77.72C93.7137 78.2 93.047 78.5733 92.247 78.84C91.4737 79.08 90.6604 79.2 89.807 79.2C87.8337 79.2 86.3137 78.6667 85.247 77.6C84.1804 76.5333 83.647 75.0267 83.647 73.08V60.36H79.887V57.96H83.647V53.36H86.487V57.96H92.887V60.36H86.487V72.92C86.487 74.1733 86.7937 75.1333 87.407 75.8C88.047 76.44 88.9537 76.76 90.127 76.76C90.7137 76.76 91.2737 76.6667 91.807 76.48C92.367 76.2933 92.847 76.0267 93.247 75.68L94.247 77.72ZM107.275 79.2C105.248 79.2 103.422 78.7467 101.795 77.84C100.168 76.9067 98.8882 75.6267 97.9548 74C97.0215 72.3733 96.5548 70.5333 96.5548 68.48C96.5548 66.4267 97.0215 64.5867 97.9548 62.96C98.8882 61.3333 100.168 60.0667 101.795 59.16C103.422 58.2533 105.248 57.8 107.275 57.8C109.302 57.8 111.128 58.2533 112.755 59.16C114.382 60.0667 115.648 61.3333 116.555 62.96C117.488 64.5867 117.955 66.4267 117.955 68.48C117.955 70.5333 117.488 72.3733 116.555 74C115.648 75.6267 114.382 76.9067 112.755 77.84C111.128 78.7467 109.302 79.2 107.275 79.2ZM107.275 76.68C108.768 76.68 110.102 76.3467 111.275 75.68C112.475 74.9867 113.408 74.0133 114.075 72.76C114.742 71.5067 115.075 70.08 115.075 68.48C115.075 66.88 114.742 65.4533 114.075 64.2C113.408 62.9467 112.475 61.9867 111.275 61.32C110.102 60.6267 108.768 60.28 107.275 60.28C105.782 60.28 104.435 60.6267 103.235 61.32C102.062 61.9867 101.128 62.9467 100.435 64.2C99.7682 65.4533 99.4348 66.88 99.4348 68.48C99.4348 70.08 99.7682 71.5067 100.435 72.76C101.128 74.0133 102.062 74.9867 103.235 75.68C104.435 76.3467 105.782 76.68 107.275 76.68Z" fill="black"/>
</svg>
